<?xml version="1.0" encoding="UTF-8" standalone="no"?>
<svg width="24" height="24" viewBox="0 0 24 24" fill="none" xmlns="http://www.w3.org/2000/svg">
  <path fill-rule="evenodd" clip-rule="evenodd" d="M12 2C8.13 2 5 3.567 5 5.5V7.5C5 9.433 8.13 11 12 11C15.87 11 19 9.433 19 7.5V5.5C19 3.567 15.87 2 12 2ZM5 9.5V14.5C5 16.433 8.13 18 12 18C15.87 18 19 16.433 19 14.5V9.5C19 11.433 15.87 13 12 13C8.13 13 5 11.433 5 9.5ZM5 16.5V18.5C5 20.433 8.13 22 12 22C15.87 22 19 20.433 19 18.5V16.5C19 18.433 15.87 20 12 20C8.13 20 5 18.433 5 16.5Z" fill="#C5C5C5"/>
</svg>
